<svg width="1024" height="1024" xmlns="http://www.w3.org/2000/svg" version="1.1" class="icon">

 <g>
  <title>Layer 1</title>
  <path id="svg_1" fill="#bf0000" d="m512,512m-512,0a512,512 0 1 0 1024,0a512,512 0 1 0 -1024,0z"/>
  <path id="svg_2" fill-opacity="0.2" fill="#FFFFFF" d="m324.40878,655.01892c180.88135,0 327.50946,-146.63121 327.50946,-327.50946c0,-152.13803 -103.73329,-280.04733 -244.32981,-316.85397c-201.77451,41.80804 -360.09142,202.36209 -398.60111,405.32649c38.60039,137.89815 165.19578,239.03694 315.42146,239.03694z"/>
  <path id="svg_3" fill-opacity="0.15" fill="#FFFFFF" d="m512,1022.94737c282.76663,0 512,-229.23337 512,-512c0,-31.76571 -2.89139,-62.85391 -8.43385,-93.01889c-87.50898,-82.88121 -205.69145,-133.71843 -335.74177,-133.71843c-269.71122,0 -488.35731,218.64532 -488.35731,488.35731c0,54.95957 9.08422,107.80293 25.82247,157.10376c83.33702,58.76567 184.99363,93.27625 294.71046,93.27625z"/>
  <path id="svg_4" fill-opacity="0.5" fill="#FFFFFF" d="m732.53596,756.56624c36.38959,0 65.88948,-29.49988 65.88948,-65.88948c0,36.3896 29.50298,65.88948 65.88947,65.88948c-17.05374,0 -65.88947,29.50298 -65.88947,65.88948c0,-36.3865 -29.49989,-65.88948 -65.88948,-65.88948zm-572.85087,-509.28691c25.68682,0 46.51022,-20.8234 46.51022,-46.51022c0,25.68682 20.8234,46.51022 46.51022,46.51022c-12.03607,0 -46.51022,20.8234 -46.51022,46.51022c0,-25.68682 -20.8234,-46.51022 -46.51022,-46.51022z"/>
  <path id="svg_5" fill-opacity="0.3" fill="#FFFFFF" d="m206.19531,333.32324c8.56253,0 15.5034,-6.94088 15.5034,-15.50341c0,8.56253 6.94088,15.50341 15.50341,15.50341c-4.01228,0 -15.50341,6.94088 -15.50341,15.50341c0,-8.56253 -6.94087,-15.50341 -15.5034,-15.50341z"/>
  <path stroke="null" id="svg_9" clip-rule="evenodd" d="m471.08708,365.69669l-98.24592,0a54.86409,54.97172 0 0 1 -10.85525,-27.95705c-0.90134,-10.05197 1.56755,-17.04123 5.44722,-21.32118c3.56617,-3.96581 12.38361,-10.09123 33.74142,-10.09123c19.47675,0 39.50215,13.35027 56.51001,36.90958c5.36884,7.46044 9.79716,15.15649 13.40252,22.45988m-167.68818,-22.774q1.09729,11.58333 4.50669,22.774l-23.27805,0a39.18864,39.26552 0 0 0 -39.18864,39.26551l0,34.63219a39.18864,39.26552 0 0 0 39.18864,39.26552l454.74493,0a39.18864,39.26552 0 0 0 39.18863,-39.26552l0,-34.63219a39.18864,39.26552 0 0 0 -39.18863,-39.26551l-23.27806,0q3.4486,-11.19067 4.50669,-22.774c1.88106,-21.67457 -2.82158,-46.41184 -20.37809,-65.96607c-17.83083,-19.75055 -44.67504,-29.48839 -77.39755,-29.48839c-47.02637,0 -82.41371,31.09829 -104.20259,61.41126a195.94317,196.32758 0 0 0 -6.62288,9.81638a195.94317,196.32758 0 0 0 -6.66207,-9.81638c-21.7105,-30.39151 -57.13703,-61.45053 -104.1242,-61.45053c-32.76171,0 -59.56673,9.73785 -77.39756,29.56693c-17.5957,19.51496 -22.25915,44.25223 -20.37809,65.96607l-0.03919,-0.03927zm249.51405,22.774l98.24591,0a54.86409,54.97172 0 0 0 10.85526,-27.95705c0.90133,-10.05197 -1.56755,-17.04123 -5.44723,-21.32118c-3.56617,-3.96581 -12.3836,-10.09123 -33.74141,-10.09123c-19.47676,0 -39.50215,13.35027 -56.51002,36.90958c-5.36884,7.46044 -9.79716,15.15649 -13.40251,22.45988m-268.2854,162.24511l202.87956,0l0,248.62924l-165.41523,0a39.18864,39.26552 0 0 1 -39.18864,-39.26552l0,-209.36372l1.7243,0zm417.28059,248.62924l-165.41523,0l0,-248.62924l204.60386,0l0,209.36372a39.18864,39.26552 0 0 1 -39.18864,39.26552" fill-rule="evenodd" fill="#ffffff"/>
 </g>
</svg>