<?xml version="1.0" standalone="no"?><!DOCTYPE svg PUBLIC "-//W3C//DTD SVG 1.1//EN" "http://www.w3.org/Graphics/SVG/1.1/DTD/svg11.dtd"><svg t="1741867769869" class="icon" viewBox="0 0 1024 1024" version="1.1" xmlns="http://www.w3.org/2000/svg" p-id="4216" xmlns:xlink="http://www.w3.org/1999/xlink" width="200" height="200"><path d="M512 512m-425 0a425 425 0 1 0 850 0 425 425 0 1 0-850 0Z" fill="#F8F8F8" p-id="4217"></path><path d="M407.6 272.8c-0.8-37.6-31.7-68-69.5-68-12.1 0-23.5 3.2-33.4 8.6-11.9-37.4-47-64.7-88.3-64.7-48.5 0-88.4 37.5-92.4 85H0v7.7h131.4c0-46.9 38.1-85 85-85 38.6 0 71.3 25.9 81.6 61.2-16.6 11.8-27.9 30.7-29.2 52.3-3.1-0.9-6.4-1.5-9.9-1.5-16.5 0-30.4 11.6-33.9 27h-51.1v7.7h58c0-14.9 12.1-27 27-27s27 12.1 27 27h19.3v-7.7h-12.5c-2.2-9.5-8.2-17.5-16.4-22.3 0.6-33.6 28-60.8 61.8-60.8 33.6 0 60.9 26.9 61.7 60.3-9.2 1.7-16.4 9.4-17.2 18.9h-19.4v7.7h28.4c-0.8-1.8-1.4-3.7-1.4-5.8 0-7.5 6.1-13.5 13.5-13.5s13.5 6.1 13.5 13.5c0 2.1-0.5 4-1.4 5.8h28.4v-7.7H425c-0.9-9.3-8.1-17-17.4-18.7zM968.6 290.3c-0.9-9.7-8.1-17.6-17.4-19.3-0.8-38.3-31.7-69.2-69.5-69.2-36.9 0-67.1 29.4-69.3 66.4-3.1-0.9-6.4-1.5-9.9-1.5-16.5 0-30.4 11.8-33.9 27.5h-51.1v7.9h58c0-15.2 12.1-27.5 27-27.5s27 12.4 27 27.5h19.3v-7.9h-12.5c-2.2-9.7-8.2-17.8-16.4-22.7 0.6-34.2 28-61.9 61.8-61.9 33.6 0 60.9 27.4 61.7 61.4-9.2 1.8-16.4 9.6-17.2 19.3h-19.4v7.9h28.4c-0.8-1.8-1.4-3.8-1.4-5.9 0-7.6 6.1-13.8 13.5-13.8s13.5 6.2 13.5 13.8c0 2.1-0.5 4.1-1.4 5.9H988v-7.9h-19.4z" p-id="4218"></path><path d="M789 793H419c-21.3 0-38.8-17.5-38.8-38.8V507.8c0-21.3 17.5-38.8 38.8-38.8h370c21.3 0 38.8 17.5 38.8 38.8v246.4c0 21.3-17.4 38.8-38.8 38.8z" fill="#FFFFFF" p-id="4219"></path><path d="M789 798H419c-24.2 0-43.8-19.6-43.8-43.8V507.8c0-24.2 19.6-43.8 43.8-43.8h370c24.2 0 43.8 19.6 43.8 43.8v246.4c0 24.2-19.6 43.8-43.8 43.8zM419 474c-18.6 0-33.8 15.2-33.8 33.8v246.4c0 18.6 15.2 33.8 33.8 33.8h370c18.6 0 33.8-15.2 33.8-33.8V507.8c0-18.6-15.2-33.8-33.8-33.8H419z" p-id="4220"></path><path d="M605 863H235c-21.3 0-38.8-17.5-38.8-38.8V577.8c0-21.3 17.5-38.8 38.8-38.8h370c21.3 0 38.8 17.5 38.8 38.8v246.4c0 21.3-17.4 38.8-38.8 38.8z" fill="#D9D9D9" p-id="4221"></path><path d="M605 868H235c-24.2 0-43.8-19.6-43.8-43.8V577.8c0-24.2 19.6-43.8 43.8-43.8h370c24.2 0 43.8 19.6 43.8 43.8v246.4c0 24.2-19.6 43.8-43.8 43.8zM235 544c-18.6 0-33.8 15.2-33.8 33.8v246.4c0 18.6 15.2 33.8 33.8 33.8h370c18.6 0 33.8-15.2 33.8-33.8V577.8c0-18.6-15.2-33.8-33.8-33.8H235z" p-id="4222"></path><path d="M705 954H335c-21.3 0-38.8-17.5-38.8-38.8V668.8c0-21.3 17.5-38.8 38.8-38.8h370c21.3 0 38.8 17.5 38.8 38.8v246.4c0 21.3-17.4 38.8-38.8 38.8z" fill="#FFFFFF" p-id="4223"></path><path d="M705 959H335c-24.2 0-43.8-19.6-43.8-43.8V668.8c0-24.2 19.6-43.8 43.8-43.8h370c24.2 0 43.8 19.6 43.8 43.8v246.4c0 24.1-19.6 43.8-43.8 43.8zM335 635c-18.6 0-33.8 15.2-33.8 33.8v246.4c0 18.6 15.2 33.8 33.8 33.8h370c18.6 0 33.8-15.2 33.8-33.8V668.8c0-18.6-15.2-33.8-33.8-33.8H335z" p-id="4224"></path><path d="M666.5 717.9c-17.9 0-32.5-14.6-32.5-32.5s14.6-32.5 32.5-32.5 32.5 14.6 32.5 32.5-14.6 32.5-32.5 32.5z" fill="#FFFFFF" p-id="4225"></path><path d="M666.5 722.9c-20.7 0-37.5-16.8-37.5-37.5s16.8-37.5 37.5-37.5 37.5 16.8 37.5 37.5-16.8 37.5-37.5 37.5z m0-64.9c-15.1 0-27.5 12.3-27.5 27.5s12.3 27.5 27.5 27.5c15.1 0 27.5-12.3 27.5-27.5S681.7 658 666.5 658z" p-id="4226"></path><path d="M628.1 767.7l107 129.8c18.3 22.3 2.5 55.8-26.3 55.8H475.1l153-185.6z" fill="#D9D9D9" p-id="4227"></path><path d="M708.7 958.3H464.5l163.6-198.5 110.8 134.5c9.7 11.8 11.7 27.7 5.2 41.6s-20.1 22.4-35.4 22.4z m-223-10h223c11.4 0 21.5-6.4 26.3-16.7 4.9-10.3 3.4-22.2-3.9-31l-103-125.1-142.4 172.8z" p-id="4228"></path><path d="M448.9 716.6L309 886.5c-22.2 26.9-3 67.5 31.8 67.5h303.7L448.9 716.6z" fill="#D9D9D9" p-id="4229"></path><path d="M655.1 959H340.8c-18.1 0-34.1-10.2-41.8-26.5-7.7-16.4-5.4-35.2 6.1-49.2l143.8-174.5L655.1 959zM448.9 724.5L312.8 889.6c-9 10.9-10.9 25.7-4.8 38.5s18.6 20.8 32.8 20.8h293.1l-185-224.4z" p-id="4230"></path></svg>